<svg width="21" height="21" viewBox="0 0 21 21" fill="none" xmlns="http://www.w3.org/2000/svg">
<g clip-path="url(#clip0_835_676)">
<path opacity="0.5" fill-rule="evenodd" clip-rule="evenodd" d="M8.5 5.84375V6.97L11.6875 4.94065C12.2825 4.64315 12.75 5.2169 12.75 5.73753V10.625H16.4688C16.6096 10.625 16.7447 10.5691 16.8444 10.4694C16.944 10.3698 17 10.2346 17 10.0938V4.25H12.75V0H9.03125C8.89035 0 8.75527 0.0559461 8.65564 0.155575C8.55601 0.255203 8.5 0.390354 8.5 0.53125V5.84375Z" fill="white"/>
<path opacity="0.5" fill-rule="evenodd" clip-rule="evenodd" d="M13.8125 0V3.1875H17L13.8125 0Z" fill="white"/>
<path d="M7.4375 11.9531C7.43475 12.1636 7.35004 12.3647 7.20119 12.5136C7.05234 12.6624 6.85111 12.7472 6.64062 12.75H0.796875C0.586386 12.7472 0.385164 12.6624 0.236313 12.5136C0.0874622 12.3647 0.00275184 12.1636 0 11.9531V6.10938C0.00275184 5.89889 0.0874622 5.69779 0.236313 5.54894C0.385164 5.40009 0.586386 5.31525 0.796875 5.3125H6.64062C6.85111 5.31525 7.05234 5.40009 7.20119 5.54894C7.35004 5.69779 7.43475 5.89889 7.4375 6.10938V11.9531Z" fill="white"/>
<path d="M8.5 8.5V9.5625L11.6875 11.6875V6.375L8.5 8.5Z" fill="white"/>
<path d="M8.5 14.875V13.8125H13.8125V11.6875L17 14.3438L13.8125 17V14.875H8.5Z" fill="white"/>
</g>
<path d="M20 17.5H20.5V17V15V14.5H20H17.5V12V11.5H17H15H14.5V12V14.5H12H11.5V15V17V17.5H12H14.5V20V20.5H15H17H17.5V20V17.5H20Z" fill="#00FF0A" stroke="black"/>
<defs>
<clipPath id="clip0_835_676">
<rect width="17" height="17" fill="white"/>
</clipPath>
</defs>
</svg>
